<svg xmlns="http://www.w3.org/2000/svg" viewBox="0 0 408.105 408.105" style="enable-background:new 0 0 408.105 408.105" xml:space="preserve"><path d="M364.479 0a7.499 7.499 0 0 0-7.5 7.5v159.924H91.065V7.5c0-4.143-3.358-7.5-7.5-7.5s-7.5 3.357-7.5 7.5v167.424a7.5 7.5 0 0 0 7.5 7.5h280.914c4.143 0 7.5-3.357 7.5-7.5V7.5a7.5 7.5 0 0 0-7.5-7.5z"/><path d="M152.219 15h20a7.5 7.5 0 0 0 0-15h-20a7.5 7.5 0 0 0 0 15zM112.219 15h20a7.5 7.5 0 0 0 0-15h-20a7.5 7.5 0 0 0 0 15zM192.219 15h20a7.5 7.5 0 0 0 7.5-7.5c0-4.143-3.357-7.5-7.5-7.5h-20a7.5 7.5 0 0 0 0 15zM272.219 15h20a7.5 7.5 0 0 0 7.5-7.5c0-4.143-3.357-7.5-7.5-7.5h-20a7.499 7.499 0 0 0-7.5 7.5 7.5 7.5 0 0 0 7.5 7.5zM232.219 15h20a7.5 7.5 0 0 0 7.5-7.5c0-4.143-3.357-7.5-7.5-7.5h-20a7.499 7.499 0 0 0-7.5 7.5 7.5 7.5 0 0 0 7.5 7.5zM312.219 15h20a7.5 7.5 0 0 0 7.5-7.5c0-4.143-3.357-7.5-7.5-7.5h-20a7.499 7.499 0 0 0-7.5 7.5 7.5 7.5 0 0 0 7.5 7.5zM364.479 225.68H83.565a7.5 7.5 0 0 0-7.5 7.5v167.426c0 4.143 3.358 7.5 7.5 7.5s7.5-3.357 7.5-7.5V240.68h265.914v159.926c0 4.143 3.357 7.5 7.5 7.5s7.5-3.357 7.5-7.5V233.18a7.5 7.5 0 0 0-7.5-7.5z"/><path d="M252.824 393.105h-20a7.499 7.499 0 0 0-7.5 7.5c0 4.143 3.357 7.5 7.5 7.5h20c4.143 0 7.5-3.357 7.5-7.5a7.5 7.5 0 0 0-7.5-7.5zM292.824 393.105h-20a7.499 7.499 0 0 0-7.5 7.5c0 4.143 3.357 7.5 7.5 7.5h20c4.143 0 7.5-3.357 7.5-7.5a7.5 7.5 0 0 0-7.5-7.5zM332.824 393.105h-20a7.499 7.499 0 0 0-7.5 7.5c0 4.143 3.357 7.5 7.5 7.5h20c4.143 0 7.5-3.357 7.5-7.5a7.5 7.5 0 0 0-7.5-7.5zM132.824 393.105h-20a7.5 7.5 0 0 0-7.5 7.5 7.5 7.5 0 0 0 7.5 7.5h20a7.5 7.5 0 0 0 0-15zM212.824 393.105h-20a7.5 7.5 0 0 0-7.5 7.5 7.5 7.5 0 0 0 7.5 7.5h20c4.143 0 7.5-3.357 7.5-7.5a7.5 7.5 0 0 0-7.5-7.5zM172.824 393.105h-20a7.5 7.5 0 0 0-7.5 7.5 7.5 7.5 0 0 0 7.5 7.5h20a7.5 7.5 0 0 0 0-15zM81.573 204.053c0-2.348-1.1-4.561-2.971-5.979L48.156 175.01a7.497 7.497 0 0 0-7.867-.737 7.498 7.498 0 0 0-4.162 6.716v46.129a7.498 7.498 0 0 0 7.499 7.5 7.507 7.507 0 0 0 4.53-1.521l30.446-23.064a7.506 7.506 0 0 0 2.971-5.98zm-30.446 7.973v-15.947l10.526 7.974-10.526 7.973z"/></svg>